<mxfile host="app.diagrams.net" agent="Mozilla/5.0 (Macintosh; Intel Mac OS X 10_15_7) AppleWebKit/605.1.15 (KHTML, like Gecko) Version/18.1.1 Safari/605.1.15" version="25.0.1">
  <diagram name="Page-1" id="r25JDX8b-Y4d6fkUdjJz">
    <mxGraphModel dx="1194" dy="772" grid="1" gridSize="10" guides="1" tooltips="1" connect="1" arrows="1" fold="1" page="1" pageScale="1" pageWidth="827" pageHeight="1169" math="0" shadow="0">
      <root>
        <mxCell id="0" />
        <mxCell id="1" parent="0" />
        <mxCell id="D_j0fSP-AJBoRoRcRjtG-1" style="edgeStyle=orthogonalEdgeStyle;rounded=0;orthogonalLoop=1;jettySize=auto;html=1;entryX=0;entryY=0.5;entryDx=0;entryDy=0;" edge="1" parent="1" source="D_j0fSP-AJBoRoRcRjtG-2" target="D_j0fSP-AJBoRoRcRjtG-12">
          <mxGeometry relative="1" as="geometry" />
        </mxCell>
        <mxCell id="D_j0fSP-AJBoRoRcRjtG-2" value="Aggregated Data" style="rounded=1;whiteSpace=wrap;html=1;dashed=1;strokeColor=#33FFFF;strokeWidth=2;verticalAlign=bottom;" vertex="1" parent="1">
          <mxGeometry x="430" y="200" width="80" height="80" as="geometry" />
        </mxCell>
        <mxCell id="D_j0fSP-AJBoRoRcRjtG-3" style="edgeStyle=orthogonalEdgeStyle;rounded=0;orthogonalLoop=1;jettySize=auto;html=1;entryX=0;entryY=0.5;entryDx=0;entryDy=0;" edge="1" parent="1" source="D_j0fSP-AJBoRoRcRjtG-4" target="D_j0fSP-AJBoRoRcRjtG-2">
          <mxGeometry relative="1" as="geometry" />
        </mxCell>
        <mxCell id="D_j0fSP-AJBoRoRcRjtG-4" value="" style="rounded=1;whiteSpace=wrap;html=1;dashed=1;strokeColor=#33FFFF;strokeWidth=2;" vertex="1" parent="1">
          <mxGeometry x="280" y="200" width="80" height="80" as="geometry" />
        </mxCell>
        <mxCell id="D_j0fSP-AJBoRoRcRjtG-5" style="edgeStyle=orthogonalEdgeStyle;rounded=0;orthogonalLoop=1;jettySize=auto;html=1;entryX=0;entryY=0.5;entryDx=0;entryDy=0;" edge="1" parent="1" source="D_j0fSP-AJBoRoRcRjtG-6" target="D_j0fSP-AJBoRoRcRjtG-4">
          <mxGeometry relative="1" as="geometry" />
        </mxCell>
        <mxCell id="D_j0fSP-AJBoRoRcRjtG-6" value="" style="rounded=1;whiteSpace=wrap;html=1;dashed=1;strokeColor=#33FFFF;strokeWidth=2;" vertex="1" parent="1">
          <mxGeometry x="120" y="200" width="80" height="80" as="geometry" />
        </mxCell>
        <mxCell id="D_j0fSP-AJBoRoRcRjtG-7" value="Analytics log" style="image;aspect=fixed;html=1;points=[];align=center;fontSize=12;image=img/lib/azure2/management_governance/Activity_Log.svg;" vertex="1" parent="1">
          <mxGeometry x="143.28" y="210" width="33.44" height="40" as="geometry" />
        </mxCell>
        <mxCell id="D_j0fSP-AJBoRoRcRjtG-8" value="Aggregators" style="sketch=0;pointerEvents=1;shadow=0;dashed=0;html=1;strokeColor=none;fillColor=#505050;labelPosition=center;verticalLabelPosition=bottom;verticalAlign=top;outlineConnect=0;align=center;shape=mxgraph.office.servers.server_farm;fillColor=#7FBA42;" vertex="1" parent="1">
          <mxGeometry x="292" y="205.5" width="56" height="49" as="geometry" />
        </mxCell>
        <mxCell id="D_j0fSP-AJBoRoRcRjtG-9" value="" style="shape=mxgraph.cisco.storage.relational_database;html=1;pointerEvents=1;dashed=0;fillColor=#036897;strokeColor=#ffffff;strokeWidth=2;verticalLabelPosition=bottom;verticalAlign=top;align=center;outlineConnect=0;" vertex="1" parent="1">
          <mxGeometry x="450" y="201.5" width="20" height="37" as="geometry" />
        </mxCell>
        <mxCell id="D_j0fSP-AJBoRoRcRjtG-10" value="" style="shape=mxgraph.cisco.storage.relational_database;html=1;pointerEvents=1;dashed=0;fillColor=#036897;strokeColor=#ffffff;strokeWidth=2;verticalLabelPosition=bottom;verticalAlign=top;align=center;outlineConnect=0;" vertex="1" parent="1">
          <mxGeometry x="460" y="205.5" width="20" height="37" as="geometry" />
        </mxCell>
        <mxCell id="D_j0fSP-AJBoRoRcRjtG-11" value="" style="shape=mxgraph.cisco.storage.relational_database;html=1;pointerEvents=1;dashed=0;fillColor=#036897;strokeColor=#ffffff;strokeWidth=2;verticalLabelPosition=bottom;verticalAlign=top;align=center;outlineConnect=0;" vertex="1" parent="1">
          <mxGeometry x="470" y="213" width="20" height="37" as="geometry" />
        </mxCell>
        <mxCell id="D_j0fSP-AJBoRoRcRjtG-12" value="" style="rounded=1;whiteSpace=wrap;html=1;dashed=1;strokeColor=#33FFFF;strokeWidth=2;" vertex="1" parent="1">
          <mxGeometry x="590" y="200" width="80" height="80" as="geometry" />
        </mxCell>
        <mxCell id="D_j0fSP-AJBoRoRcRjtG-13" value="Workers" style="sketch=0;pointerEvents=1;shadow=0;dashed=0;html=1;strokeColor=none;fillColor=#505050;labelPosition=center;verticalLabelPosition=bottom;verticalAlign=top;outlineConnect=0;align=center;shape=mxgraph.office.servers.server_farm;fillColor=#7FBA42;" vertex="1" parent="1">
          <mxGeometry x="602" y="207" width="56" height="49" as="geometry" />
        </mxCell>
      </root>
    </mxGraphModel>
  </diagram>
</mxfile>
